<mxfile host="app.diagrams.net" modified="2023-11-23T20:49:17.829Z" agent="Mozilla/5.0 (Windows NT 10.0; Win64; x64) AppleWebKit/537.36 (KHTML, like Gecko) Chrome/119.0.0.0 Safari/537.36" etag="o2k5Bgwtqh_YB_Ev75gJ" version="22.1.3" type="device">
  <diagram name="Page-1" id="gVxYKvBHVsWEYq3pqeC-">
    <mxGraphModel dx="1221" dy="662" grid="1" gridSize="10" guides="1" tooltips="1" connect="1" arrows="1" fold="1" page="1" pageScale="1" pageWidth="850" pageHeight="1100" math="0" shadow="0">
      <root>
        <mxCell id="0" />
        <mxCell id="1" parent="0" />
        <mxCell id="A5vNExdmD6bwlGy1ytX5-1" value="" style="edgeStyle=orthogonalEdgeStyle;rounded=0;orthogonalLoop=1;jettySize=auto;html=1;exitX=0.25;exitY=1;exitDx=0;exitDy=0;entryX=0.5;entryY=0;entryDx=0;entryDy=0;strokeColor=default;endArrow=none;endFill=0;" edge="1" parent="1" source="A5vNExdmD6bwlGy1ytX5-5" target="A5vNExdmD6bwlGy1ytX5-6">
          <mxGeometry relative="1" as="geometry" />
        </mxCell>
        <mxCell id="A5vNExdmD6bwlGy1ytX5-3" value="" style="edgeStyle=orthogonalEdgeStyle;rounded=0;orthogonalLoop=1;jettySize=auto;html=1;exitX=1;exitY=0.5;exitDx=0;exitDy=0;entryX=0;entryY=0.5;entryDx=0;entryDy=0;strokeColor=default;endArrow=none;endFill=0;" edge="1" parent="1" source="A5vNExdmD6bwlGy1ytX5-5" target="A5vNExdmD6bwlGy1ytX5-12">
          <mxGeometry relative="1" as="geometry" />
        </mxCell>
        <mxCell id="A5vNExdmD6bwlGy1ytX5-4" value="" style="edgeStyle=orthogonalEdgeStyle;rounded=0;orthogonalLoop=1;jettySize=auto;html=1;exitX=1;exitY=0;exitDx=0;exitDy=0;entryX=0;entryY=0.5;entryDx=0;entryDy=0;strokeColor=default;endArrow=none;endFill=0;" edge="1" parent="1" source="A5vNExdmD6bwlGy1ytX5-5" target="A5vNExdmD6bwlGy1ytX5-11">
          <mxGeometry relative="1" as="geometry" />
        </mxCell>
        <mxCell id="A5vNExdmD6bwlGy1ytX5-21" style="edgeStyle=orthogonalEdgeStyle;rounded=0;orthogonalLoop=1;jettySize=auto;html=1;exitX=0.25;exitY=0;exitDx=0;exitDy=0;entryX=0.5;entryY=1;entryDx=0;entryDy=0;strokeColor=default;endArrow=none;endFill=0;" edge="1" parent="1" source="A5vNExdmD6bwlGy1ytX5-5" target="A5vNExdmD6bwlGy1ytX5-20">
          <mxGeometry relative="1" as="geometry" />
        </mxCell>
        <mxCell id="A5vNExdmD6bwlGy1ytX5-5" value="&lt;b&gt;Utilizatori&lt;br&gt;&lt;br&gt;id#&lt;br&gt;nume&lt;br&gt;email&lt;br&gt;parola&lt;br&gt;data_inregistrare&lt;br&gt;&lt;br&gt;&lt;/b&gt;" style="rounded=0;whiteSpace=wrap;html=1;align=left;" vertex="1" parent="1">
          <mxGeometry x="140" y="490" width="170" height="120" as="geometry" />
        </mxCell>
        <mxCell id="A5vNExdmD6bwlGy1ytX5-6" value="&lt;b&gt;Admini&lt;br&gt;&lt;br&gt;drepturi/rang&lt;br&gt;&lt;/b&gt;" style="rounded=0;whiteSpace=wrap;html=1;align=left;" vertex="1" parent="1">
          <mxGeometry x="60" y="710" width="120" height="60" as="geometry" />
        </mxCell>
        <mxCell id="A5vNExdmD6bwlGy1ytX5-22" style="edgeStyle=orthogonalEdgeStyle;rounded=0;orthogonalLoop=1;jettySize=auto;html=1;exitX=0.5;exitY=1;exitDx=0;exitDy=0;entryX=0.5;entryY=0;entryDx=0;entryDy=0;strokeColor=default;endArrow=none;endFill=0;" edge="1" parent="1" source="A5vNExdmD6bwlGy1ytX5-7" target="A5vNExdmD6bwlGy1ytX5-20">
          <mxGeometry relative="1" as="geometry" />
        </mxCell>
        <mxCell id="A5vNExdmD6bwlGy1ytX5-7" value="&lt;b&gt;Conectari&lt;br&gt;&lt;br&gt;id#&lt;br&gt;moment (???)&lt;br&gt;ip&lt;br&gt;&lt;/b&gt;" style="rounded=0;whiteSpace=wrap;html=1;align=left;" vertex="1" parent="1">
          <mxGeometry x="100" y="75" width="170" height="100" as="geometry" />
        </mxCell>
        <mxCell id="A5vNExdmD6bwlGy1ytX5-10" value="refera" style="edgeStyle=orthogonalEdgeStyle;rounded=0;orthogonalLoop=1;jettySize=auto;html=1;exitX=1;exitY=0.5;exitDx=0;exitDy=0;entryX=0.5;entryY=0;entryDx=0;entryDy=0;strokeColor=default;endArrow=none;endFill=0;" edge="1" parent="1" source="A5vNExdmD6bwlGy1ytX5-11" target="A5vNExdmD6bwlGy1ytX5-12">
          <mxGeometry relative="1" as="geometry">
            <mxPoint x="700" y="270" as="targetPoint" />
          </mxGeometry>
        </mxCell>
        <mxCell id="A5vNExdmD6bwlGy1ytX5-11" value="&lt;b&gt;Tranzactii (efectuate)&lt;br&gt;&lt;br&gt;id_oferta#&lt;br&gt;data&lt;br&gt;&lt;/b&gt;" style="rounded=0;whiteSpace=wrap;html=1;align=left;" vertex="1" parent="1">
          <mxGeometry x="500" y="80" width="150" height="90" as="geometry" />
        </mxCell>
        <mxCell id="A5vNExdmD6bwlGy1ytX5-12" value="&lt;b&gt;Oferte&lt;br&gt;&lt;br&gt;id_oferta#&lt;br&gt;bun&lt;br&gt;descriere&lt;br&gt;pret&lt;br&gt;cod_terminare (0 libera, 1 blocata temporar, 2 tranzactionata)&lt;br&gt;&lt;/b&gt;" style="rounded=0;whiteSpace=wrap;html=1;align=left;" vertex="1" parent="1">
          <mxGeometry x="610" y="310" width="280" height="132.5" as="geometry" />
        </mxCell>
        <mxCell id="A5vNExdmD6bwlGy1ytX5-19" value="&lt;b&gt;&lt;u&gt;X&lt;/u&gt;&lt;/b&gt;" style="text;html=1;strokeColor=none;fillColor=none;align=center;verticalAlign=middle;whiteSpace=wrap;rounded=0;" vertex="1" parent="1">
          <mxGeometry x="120" y="690" width="45" height="20" as="geometry" />
        </mxCell>
        <mxCell id="A5vNExdmD6bwlGy1ytX5-20" value="&lt;b&gt;Utilizatori_conectari&lt;br&gt;&lt;/b&gt;" style="rounded=0;whiteSpace=wrap;html=1;align=left;" vertex="1" parent="1">
          <mxGeometry x="100" y="340" width="180" height="30" as="geometry" />
        </mxCell>
        <mxCell id="A5vNExdmD6bwlGy1ytX5-23" value="&lt;b&gt;&lt;u&gt;X&lt;/u&gt;&lt;/b&gt;" style="text;html=1;strokeColor=none;fillColor=none;align=center;verticalAlign=middle;whiteSpace=wrap;rounded=0;" vertex="1" parent="1">
          <mxGeometry x="190" y="370" width="45" height="20" as="geometry" />
        </mxCell>
        <mxCell id="A5vNExdmD6bwlGy1ytX5-24" value="&lt;b&gt;&lt;u&gt;X&lt;/u&gt;&lt;/b&gt;" style="text;html=1;strokeColor=none;fillColor=none;align=center;verticalAlign=middle;whiteSpace=wrap;rounded=0;" vertex="1" parent="1">
          <mxGeometry x="190" y="320" width="45" height="20" as="geometry" />
        </mxCell>
        <mxCell id="A5vNExdmD6bwlGy1ytX5-25" value="&lt;b&gt;&lt;u&gt;X&lt;/u&gt;&lt;/b&gt;" style="text;html=1;strokeColor=none;fillColor=none;align=center;verticalAlign=middle;whiteSpace=wrap;rounded=0;" vertex="1" parent="1">
          <mxGeometry x="460" y="100" width="45" height="20" as="geometry" />
        </mxCell>
        <mxCell id="A5vNExdmD6bwlGy1ytX5-26" value="&lt;b&gt;X&lt;/b&gt;" style="text;html=1;strokeColor=none;fillColor=none;align=center;verticalAlign=middle;whiteSpace=wrap;rounded=0;" vertex="1" parent="1">
          <mxGeometry x="565" y="350" width="45" height="20" as="geometry" />
        </mxCell>
        <mxCell id="A5vNExdmD6bwlGy1ytX5-28" value="&lt;b&gt;&lt;u&gt;X&lt;/u&gt;&lt;/b&gt;" style="text;html=1;strokeColor=none;fillColor=none;align=center;verticalAlign=middle;whiteSpace=wrap;rounded=0;" vertex="1" parent="1">
          <mxGeometry x="650" y="100" width="45" height="20" as="geometry" />
        </mxCell>
      </root>
    </mxGraphModel>
  </diagram>
</mxfile>
